<?xml version="1.0" encoding="UTF-8"?>
<svg id="Calque_1" data-name="Calque 1" xmlns="http://www.w3.org/2000/svg" viewBox="0 0 1190.55 1190.55">
  <defs>
    <style>
      .cls-1 {
        fill: #ff4800;
      }
    </style>
  </defs>
  <path class="cls-1" d="M1160.7,455.95c-13.02-35.07-104.02,8.77-203.47,36.02-99.45,27.25-258.3,51.04-269.09,49.14-.11-.02-.21-.04-.32-.06-5.87-1.07-9.54-6.96-8.02-12.72,20.84-79.11,44.78-140.15,54.11-161.14,15.4-34.64,19.25-123.18-47.47-134.72-66.72-11.55-79.67,91-119.33,130.87-32.16,32.34-113.82,106.67-168.94,156.45,5.86-108.81,8.03-219.97,1.93-246.36-11.48-49.74-89.27-66.31-131.35-17.85-42.08,48.46-207.74,223.97-207.74,223.97-9.9,13.59-26.46,56.16-4.32,73.98s70.74-8.64,83.16-29.7c12.42-21.06,56.16-61.02,76.68-84.24s77.22-92.88,100.44-84.78c23.22,8.1-2.31,155.82-2.31,209.39s-56.11,313.72-20.4,331.57c35.71,17.85,59.94-8.93,66.31-33.16,6.38-24.23,0-51.01,16.58-119.88.99-4.11,1.98-9.24,2.98-15.24,34.92-20.35,107.38-59.36,140.79-53.64,44.91,7.7,34.64,143.71,19.25,200.16s7.7,120.61,59.02,102.65c51.32-17.96,37.21-84.68,35.93-106.5-1.29-21.89-2.58-16.64,13-172.37.24-2.41.82-4.79,1.72-7.04,15.9-39.87,57.25-62.99,99.08-80.5,43.08-18.03,294.56-70.13,347.66-80.15,53.1-10.02,77.15-39.07,64.12-74.14ZM539.2,583.38c-24.35,11.97-50.63,18.11-69.21,20.2-8.64.97-13.38-9.77-6.88-15.53,32.98-29.24,103.55-91.07,111.58-92.08,10.52-1.31,4.6,67.69-35.49,87.41Z"/>
</svg>