<?xml version="1.0" encoding="UTF-8"?>
<svg id="Calque_1" data-name="Calque 1" xmlns="http://www.w3.org/2000/svg" viewBox="0 0 841.89 841.89">
  <defs>
    <style>
      .cls-1 {
        isolation: isolate;
      }

      .cls-2 {
        fill: #ff1e00;
      }
    </style>
  </defs>
  <g class="cls-1">
    <g class="cls-1">
      <path class="cls-2" d="M38.16,246.56v-69.95c71.68-16.41,100.18-57.86,110.54-88.95h109.68l-.86,59.59v494.85l.86,63.04H127.11l.86-63.04V246.56H38.16Z"/>
      <path class="cls-2" d="M509.69,642.1v-64.77h-206.4v-101.04L491.55,87.66h145.95l-.86,63.04v325.58h53.54v101.04h-53.54v64.77l.86,63.04h-128.68l.86-63.04ZM509.69,476.28v-227.99h-4.32l-109.68,227.99h114Z"/>
    </g>
  </g>
  <g class="cls-1">
    <g class="cls-1">
      <path class="cls-2" d="M754.8,228.44v48.58h60.97v47.91h-111.56l.33-24.46V109.84l-.33-24.46h110.56v47.91h-59.97v47.24h53.6v47.91h-53.6Z"/>
    </g>
  </g>
</svg>